<svg xmlns="http://www.w3.org/2000/svg" width="80.312" height="80.312" viewBox="0 0 80.312 80.312">
  <g id="Grupo_2369" data-name="Grupo 2369" transform="translate(-1602 -1389)">
    <path id="Elipse_38" data-name="Elipse 38" d="M40.156,2.975A37.192,37.192,0,0,0,25.684,74.417,37.192,37.192,0,0,0,54.628,5.9,36.946,36.946,0,0,0,40.156,2.975m0-2.975A40.156,40.156,0,1,1,0,40.156,40.156,40.156,0,0,1,40.156,0Z" transform="translate(1602 1389)" fill="#fff"/>
    <g id="Grupo_2368" data-name="Grupo 2368" transform="translate(1626.54 1409.011)">
      <path id="Trazado_1805" data-name="Trazado 1805" d="M117.583,175.809a5.134,5.134,0,0,0,5.134-5.134v-7.2a5.134,5.134,0,1,0-10.269,0v7.2A5.133,5.133,0,0,0,117.583,175.809Z" transform="translate(-112.449 -158.34)" fill="#fff"/>
      <path id="Trazado_1806" data-name="Trazado 1806" d="M139,163.474v7.2a5.134,5.134,0,1,0,10.269,0v-7.2a5.134,5.134,0,1,0-10.269,0Z" transform="translate(-118.192 -158.34)" fill="#fff"/>
    </g>
    <g id="Grupo_2367" data-name="Grupo 2367" transform="translate(1621.334 1434.042)">
      <path id="Trazado_1807" data-name="Trazado 1807" d="M-6362.612-3667.562a20.6,20.6,0,0,1-20.6,20.6,20.6,20.6,0,0,1-20.6-20.6C-6389.966-3660.559-6376.234-3660.671-6362.612-3667.562Z" transform="translate(6403.813 3667.562)" fill="#fff"/>
    </g>
  </g>
</svg>
