<?xml version="1.0" encoding="UTF-8"?>
<svg id="Layer_1" xmlns="http://www.w3.org/2000/svg" viewBox="0 0 512 512">
  <defs>
    <style>
      .cls-1, .cls-2 {
        fill: #fff;
        stroke: #fff;
        stroke-miterlimit: 10;
      }

      .cls-2 {
        stroke-width: 14px;
      }
    </style>
  </defs>
  <circle class="cls-2" cx="256" cy="256" r="199.5"/>
  <path class="cls-1" d="M245,352.25c-15.12,0-27.5,12.38-27.5,27.5s12.38,27.5,27.5,27.5,27.5-12.38,27.5-27.5-12.38-27.5-27.5-27.5ZM288.31,104.75h-64.62c-43.31,0-77.69,34.38-77.69,77.69v10.31c0,12.38,9.62,22,22,22s22-9.62,22-22v-10.31c0-18.56,15.12-33.69,33.69-33.69h64.62c18.56,0,33.69,15.12,33.69,33.69,0,11.69-6.88,22.69-17.19,28.88l-59.12,33c-13.75,7.56-22.69,22.69-22.69,38.5v19.94c0,12.38,9.62,22,22,22s22-9.62,22-22v-19.94l59.12-33c24.75-13.75,39.88-39.88,39.88-67.38,0-43.31-34.38-77.69-77.69-77.69Z"/>
</svg>