<svg xmlns="http://www.w3.org/2000/svg" xmlns:xlink="http://www.w3.org/1999/xlink" width="63.999" height="90.883" viewBox="0 0 63.999 90.883">
  <defs>
    <clipPath id="clip-path">
      <rect id="Rectángulo_1664" data-name="Rectángulo 1664" width="23.695" height="16.687" fill="#fff"/>
    </clipPath>
  </defs>
  <g id="Stats" transform="translate(8 8)">
    <path id="Shape" d="M16.068,4.827a3.373,3.373,0,0,0-4.634,1.205L8.2,10.377V.877a.856.856,0,1,0-1.712,0v12.1a.854.854,0,0,0,1.537.532L12.8,7.085l.016-.022a1.718,1.718,0,0,1,2.389-.719,1.692,1.692,0,0,1,.7,2.194l-.007.016-4.948,11.6A13.614,13.614,0,0,1,7.712,24.2c-1.229,1.247-1.286,3.394-1.248,5.185.019.9.041,1.912-.383,2.357a1.494,1.494,0,0,1-1.1.333H.856a.877.877,0,0,0,0,1.754H4.977A3.078,3.078,0,0,0,7.3,32.965c.928-.972.9-2.442.871-3.622-.024-1.123-.037-3.11.741-3.9a14.905,14.905,0,0,0,3.595-4.554l.008-.018L17.47,9.264A3.46,3.46,0,0,0,16.068,4.827Z" transform="translate(29.176 49.057)" fill="#fff"/>
    <path id="Shape-2" data-name="Shape" d="M18.476,0h0A3.417,3.417,0,0,0,15.1,3.451c0,1.68,0,1.21,0,12.742a3.285,3.285,0,0,0-1.692-.468A3.347,3.347,0,0,0,10.6,17.272a3.307,3.307,0,0,0-2.214-.853,3.341,3.341,0,0,0-2.735,1.44,3.312,3.312,0,0,0-2.287-.92A3.413,3.413,0,0,0,0,20.39c0,7.3,0,13.714,0,14.884C0,40.25,3.6,40.135,3.6,43.3v2.924A3.057,3.057,0,0,0,6.324,49.61a.826.826,0,0,0,.1.005h4.074a.877.877,0,0,0,0-1.754H6.472c-.8-.109-1.161-.614-1.161-1.631V43.306c0-4.206-3.6-3.818-3.6-8.031.01-13.434,0-10.129,0-14.885a1.677,1.677,0,0,1,1.655-1.7,1.677,1.677,0,0,1,1.655,1.7v5.055a.856.856,0,1,0,1.712,0V19.869a1.655,1.655,0,1,1,3.31,0v5.575a.856.856,0,1,0,1.712,0V19.175a1.677,1.677,0,0,1,1.655-1.7,1.708,1.708,0,0,1,1.691,1.7v6.269a.856.856,0,1,0,1.712,0c0-21.234,0-19.847,0-21.992a1.681,1.681,0,0,1,1.658-1.7h0a1.677,1.677,0,0,1,1.649,1.7v9.117a.856.856,0,1,0,1.712,0V3.456A3.413,3.413,0,0,0,18.476,0Z" transform="translate(15.542 33.268)" fill="#fff"/>
    <g id="_x33_" transform="translate(-8 -12.371)">
      <path id="Trazado_1734" data-name="Trazado 1734" d="M59.427,4.371H4.573A4.578,4.578,0,0,0,0,8.944V55.056a4.578,4.578,0,0,0,4.573,4.573H59.426A4.578,4.578,0,0,0,64,55.056V8.944A4.576,4.576,0,0,0,59.427,4.371ZM4.573,6.657H59.426a2.29,2.29,0,0,1,2.287,2.287v5.6H2.287v-5.6A2.289,2.289,0,0,1,4.573,6.657ZM59.427,57.343H4.573a2.29,2.29,0,0,1-2.287-2.287V16.833H61.713V55.056A2.289,2.289,0,0,1,59.427,57.343Zm-48.638-45.6H5.928V9.457h4.861Zm6.86,0H12.788V9.457h4.861Zm6.861,0H19.649V9.457H24.51Z" fill="#fff"/>
    </g>
    <g id="Grupo_2364" data-name="Grupo 2364" transform="translate(12.152 13.571)" clip-path="url(#clip-path)">
      <path id="Trazado_1733" data-name="Trazado 1733" d="M11.816,9.4h-.778a5.076,5.076,0,0,0,1.323-3.457A5.856,5.856,0,0,0,6.2,0,5.9,5.9,0,0,0,0,5.994c0,3.687,2.341,5.978,6.111,5.978h5.705a1.288,1.288,0,1,0,0-2.568M6.2,2.9A2.887,2.887,0,0,1,9.1,6.026a2.913,2.913,0,1,1-5.8,0A2.919,2.919,0,0,1,6.2,2.9" fill="#fff"/>
      <path id="Trazado_1734-2" data-name="Trazado 1734" d="M211.99,13.3l-1.867-2.537a3.211,3.211,0,0,0,2.114-3.126c0-2.3-1.621-3.621-4.449-3.621H205.1A1.563,1.563,0,0,0,203.354,5.8v8.353a1.54,1.54,0,1,0,3.059,0V11.244h.617l2.51,3.823a1.541,1.541,0,0,0,1.322.8,1.47,1.47,0,0,0,1.514-1.493,1.844,1.844,0,0,0-.387-1.07m-4.546-4.472H206.4V6.655h1.2c1.036,0,1.561.347,1.561,1.033,0,.759-.578,1.144-1.717,1.144" transform="translate(-188.96 -3.73)" fill="#fff"/>
      <path id="Trazado_1735" data-name="Trazado 1735" d="M171.225,206.147h.417l-.207-.516Z" transform="translate(-159.105 -190.824)" fill="#fff"/>
      <path id="Trazado_1736" data-name="Trazado 1736" d="M110.809,203.74a.481.481,0,0,0,0,.957.48.48,0,0,0,0-.957" transform="translate(-102.56 -189.069)" fill="#fff"/>
      <path id="Trazado_1737" data-name="Trazado 1737" d="M23.709,188.718H3.163a1.529,1.529,0,0,0-1.516,1.542v.014a1.529,1.529,0,0,0,1.516,1.542H23.709a1.529,1.529,0,0,0,1.516-1.542v-.014a1.529,1.529,0,0,0-1.516-1.542M6.32,190.961a.739.739,0,0,1-.442.138.819.819,0,1,1,.006-1.638.8.8,0,0,1,.417.11.184.184,0,0,1,.088.16.165.165,0,0,1-.168.169.219.219,0,0,1-.125-.046.368.368,0,0,0-.2-.053.444.444,0,0,0-.44.476.436.436,0,0,0,.434.477.339.339,0,0,0,.22-.068.206.206,0,0,1,.13-.05.162.162,0,0,1,.164.169.2.2,0,0,1-.084.156m3.459.138a.8.8,0,0,1-.831-.825.782.782,0,0,1,.831-.812.782.782,0,0,1,.833.812.8.8,0,0,1-.833.825m4.668-.02a.19.19,0,0,1-.186-.143l-.073-.184H13.53l-.075.187a.191.191,0,0,1-.181.14.173.173,0,0,1-.179-.18.254.254,0,0,1,.024-.105l.505-1.129a.259.259,0,0,1,.244-.184c.075,0,.171.022.242.184l.5,1.124a.273.273,0,0,1,.022.1.18.18,0,0,1-.184.189m3.58-1.256h-.278v1.045a.186.186,0,1,1-.369,0v-1.045H17.1a.161.161,0,1,1,0-.321h.926a.161.161,0,1,1,0,.321m3.229,1.273a.809.809,0,0,1-.44-.125.183.183,0,0,1-.084-.147.172.172,0,0,1,.171-.176.216.216,0,0,1,.125.05.478.478,0,0,0,.255.088.168.168,0,0,0,.186-.169c0-.119-.117-.156-.317-.222s-.391-.165-.391-.446c0-.345.306-.487.591-.487a.712.712,0,0,1,.347.09.175.175,0,0,1,.1.156.159.159,0,0,1-.155.165.211.211,0,0,1-.108-.035.438.438,0,0,0-.2-.066c-.108,0-.2.044-.2.156s.091.136.235.182c.207.068.475.158.475.468a.522.522,0,0,1-.585.518" transform="translate(-1.53 -175.129)" fill="#fff"/>
    </g>
  </g>
</svg>
