<svg xmlns="http://www.w3.org/2000/svg" width="37.275" height="37.275" viewBox="0 0 37.275 37.275">
  <path id="af2da8f3726c5aa836b9ea2eeab70e0c" d="M30.59,8.449h0a2.236,2.236,0,1,0,2.237,2.236A2.236,2.236,0,0,0,30.59,8.449Zm8.573,4.51a14.146,14.146,0,0,0-.857-4.529,9.207,9.207,0,0,0-2.162-3.3,8.76,8.76,0,0,0-3.3-2.143,13.605,13.605,0,0,0-4.529-.876C26.341,2,25.707,2,20.637,2s-5.7,0-7.679.112a13.605,13.605,0,0,0-4.529.876,8.909,8.909,0,0,0-3.3,2.143,8.76,8.76,0,0,0-2.143,3.3,13.605,13.605,0,0,0-.876,4.529C2,14.934,2,15.568,2,20.637s0,5.7.112,7.679a13.605,13.605,0,0,0,.876,4.529,8.76,8.76,0,0,0,2.143,3.3,8.909,8.909,0,0,0,3.3,2.143,13.605,13.605,0,0,0,4.529.876c1.976.112,2.609.112,7.679.112s5.7,0,7.679-.112a13.605,13.605,0,0,0,4.529-.876,8.76,8.76,0,0,0,3.3-2.143,9.039,9.039,0,0,0,2.162-3.3,14.146,14.146,0,0,0,.857-4.529c0-1.976.112-2.609.112-7.679S39.275,14.934,39.163,12.959ZM35.808,28.092a10.455,10.455,0,0,1-.634,3.467,5.7,5.7,0,0,1-1.4,2.143,5.945,5.945,0,0,1-2.143,1.4,10.456,10.456,0,0,1-3.467.634c-1.864.093-2.553.112-7.455.112s-5.591,0-7.455-.112a10.679,10.679,0,0,1-3.616-.559,6.094,6.094,0,0,1-2.05-1.4,5.591,5.591,0,0,1-1.379-2.143,10.325,10.325,0,0,1-.746-3.541c0-1.864-.112-2.553-.112-7.455s0-5.591.112-7.455a10.325,10.325,0,0,1,.652-3.541,5.591,5.591,0,0,1,1.472-2.05A5.852,5.852,0,0,1,9.641,6.1a10.679,10.679,0,0,1,3.541-.634c1.864,0,2.553-.112,7.455-.112s5.591,0,7.455.112a10.456,10.456,0,0,1,3.467.634,5.7,5.7,0,0,1,2.218,1.491,5.7,5.7,0,0,1,1.4,2.05,10.456,10.456,0,0,1,.634,3.541c.093,1.864.112,2.553.112,7.455S35.9,26.229,35.808,28.092ZM20.637,11.076a9.542,9.542,0,1,0,6.778,2.788,9.561,9.561,0,0,0-6.778-2.788Zm0,15.767a6.206,6.206,0,1,1,6.206-6.206,6.206,6.206,0,0,1-6.206,6.206Z" transform="translate(-2 -2)" fill="#e8e8e8"/>
</svg>
