<svg id="Componente_9_2" data-name="Componente 9 – 2" xmlns="http://www.w3.org/2000/svg" xmlns:xlink="http://www.w3.org/1999/xlink" width="128" height="87.578" viewBox="0 0 128 87.578">
  <defs>
    <clipPath id="clip-path">
      <rect id="Rectángulo_193" data-name="Rectángulo 193" width="128" height="87.578" fill="none"/>
    </clipPath>
  </defs>
  <g id="Grupo_223" data-name="Grupo 223" clip-path="url(#clip-path)">
    <path id="Trazado_1527" data-name="Trazado 1527" d="M63.831,49.355h-4.2a26.235,26.235,0,0,0,7.147-18.146C66.776,13.125,52.788,0,33.515,0,14.1,0,0,13.231,0,31.459,0,50.812,12.649,62.834,33.01,62.834H63.831c5.531,0,7.494-3.631,7.494-6.74s-1.962-6.74-7.494-6.74M33.515,15.228c9.223,0,15.665,6.743,15.665,16.4,0,9.851-6.476,16.73-15.749,16.73-9.174,0-15.58-6.88-15.58-16.73,0-9.5,6.588-16.4,15.665-16.4" fill="#b8bcfe"/>
    <path id="Trazado_1528" data-name="Trazado 1528" d="M250,52.744,239.919,39.428C247.2,36.6,251.336,30.7,251.336,23.021c0-12.076-8.759-19-24.033-19H212.8c-6.266,0-9.443,3.14-9.443,9.334V57.194c0,6.643,4.451,9,8.263,9s8.263-2.357,8.263-9V41.939h3.335L236.774,62c2.3,3.465,5.156,4.193,7.142,4.193a7.836,7.836,0,0,0,8.178-7.833A9.508,9.508,0,0,0,250,52.744M225.448,29.274H219.8V17.852h6.495c5.6,0,8.435,1.823,8.435,5.419,0,3.983-3.121,6-9.278,6" transform="translate(-125.594 -2.5)" fill="#b8bcfe"/>
    <path id="Trazado_1529" data-name="Trazado 1529" d="M171.225,208.338h2.25l-1.119-2.707Z" transform="translate(-105.751 -127.918)" fill="#b8bcfe"/>
    <path id="Trazado_1530" data-name="Trazado 1530" d="M112.728,203.74a2.517,2.517,0,0,0,0,5.024,2.516,2.516,0,0,0,0-5.024" transform="translate(-68.168 -126.742)" fill="#b8bcfe"/>
    <path id="Trazado_1531" data-name="Trazado 1531" d="M120.829,188.718H9.835a8.141,8.141,0,0,0-8.188,8.092v.073a8.14,8.14,0,0,0,8.188,8.092H120.829a8.14,8.14,0,0,0,8.188-8.092v-.073a8.141,8.141,0,0,0-8.188-8.092m-93.94,11.773a4.073,4.073,0,0,1-2.39.726,4.3,4.3,0,1,1,.035-8.6,4.427,4.427,0,0,1,2.25.576.956.956,0,0,1,.478.84.881.881,0,0,1-.909.888,1.2,1.2,0,0,1-.677-.241,2.029,2.029,0,0,0-1.072-.277,2.361,2.361,0,0,0-2.378,2.5,2.316,2.316,0,0,0,2.344,2.5,1.868,1.868,0,0,0,1.188-.357,1.13,1.13,0,0,1,.7-.265.861.861,0,0,1,.885.887,1.042,1.042,0,0,1-.454.818m18.688.726a4.242,4.242,0,0,1-4.489-4.332,4.169,4.169,0,0,1,4.489-4.263,4.172,4.172,0,0,1,4.5,4.263,4.245,4.245,0,0,1-4.5,4.332m25.217-.1a1.024,1.024,0,0,1-1-.748l-.4-.968H65.839l-.407.979a1.027,1.027,0,0,1-.98.737.922.922,0,0,1-.968-.945,1.3,1.3,0,0,1,.128-.553l2.728-5.923a1.4,1.4,0,0,1,1.317-.968,1.339,1.339,0,0,1,1.306.968l2.7,5.9a1.4,1.4,0,0,1,.117.53.958.958,0,0,1-.992.991m19.341-6.591h-1.5v5.485a1,1,0,1,1-1.993,0v-5.485h-1.5a.847.847,0,1,1,0-1.682h5a.847.847,0,1,1,0,1.682m17.441,6.683a4.465,4.465,0,0,1-2.378-.657.953.953,0,0,1-.455-.772.913.913,0,0,1,.921-.922,1.185,1.185,0,0,1,.676.265,2.631,2.631,0,0,0,1.375.461.9.9,0,0,0,1-.887c0-.623-.63-.818-1.714-1.164-1.049-.334-2.11-.864-2.11-2.339,0-1.809,1.655-2.558,3.194-2.558a3.935,3.935,0,0,1,1.877.472.913.913,0,0,1,.536.818.846.846,0,0,1-.839.864,1.164,1.164,0,0,1-.583-.185,2.413,2.413,0,0,0-1.084-.345c-.583,0-1.1.231-1.1.819,0,.541.49.714,1.271.956,1.12.357,2.565.83,2.565,2.455,0,1.879-1.528,2.719-3.16,2.719" transform="translate(-1.017 -117.397)" fill="#b8bcfe"/>
  </g>
</svg>
