<?xml version="1.0" encoding="UTF-8"?>
<svg id="Layer_1" data-name="Layer 1" xmlns="http://www.w3.org/2000/svg" version="1.1" viewBox="0 0 512 512">
  <defs>
    <style>
      .cls-1 {
        fill: #fff;
        stroke-width: 0px;
      }
    </style>
  </defs>
  <path class="cls-1" d="M485,331h0l-102-44c-19-8-40-2-53,13l-33,41c-53-29-97-73-125-126l40-33c16-13,21-34,13-53l-44-102c-8-20-30-31-51-26L35,23C14,28,0,46,0,67c0,245,200,445,445,445s39-14,44-35l22-95c5-21-6-43-26-51ZM458,470c-2,6-7,10-13,10-228,0-413-185-413-413s4-11,10-13l95-22h3c5,0,10,3,12,8l44,102c2,5,0,12-4,15l-51,42c-5,4-7,12-4,19,33,68,89,124,157,157,7,3,15,2,19-4l42-51c4-4,10-6,15-4l102,44c6,3,9,9,8,15l-22,95Z"/>
</svg>