<?xml version="1.0" encoding="UTF-8"?>
<svg xmlns="http://www.w3.org/2000/svg" version="1.1" viewBox="0 0 512 512">
  <defs>
    <style>
      .cls-1 {
        fill: #fff;
      }
    </style>
  </defs>
  <!-- Generator: Adobe Illustrator 28.6.0, SVG Export Plug-In . SVG Version: 1.2.0 Build 709)  -->
  <g>
    <g id="Layer_1">
      <path class="cls-1" d="M239,395.5c-22,0-40,18-40,40s18,40,40,40,40-18,40-40-18-40-40-40ZM302,35.5h-94c-63,0-113,50-113,113v15c0,18,14,32,32,32s32-14,32-32v-15c0-27,22-49,49-49h94c27,0,49,22,49,49s-10,33-25,42l-86,48c-20,11-33,33-33,56v29c0,18,14,32,32,32s32-14,32-32v-29l86-48c36-20,58-58,58-98,0-63-50-113-113-113Z"/>
    </g>
  </g>
</svg>