<svg xmlns="http://www.w3.org/2000/svg" width="77" height="77" viewBox="0 0 77 77">
  <g id="_74f5026e7227ab3afd92a61d070bb4dd" data-name="74f5026e7227ab3afd92a61d070bb4dd" transform="translate(0.188 76.812) rotate(-90)">
    <rect id="Rectángulo_1663" data-name="Rectángulo 1663" width="77" height="77" transform="translate(-0.188 -0.188)" fill="none"/>
    <line id="Línea_1" data-name="Línea 1" y2="42" transform="translate(28.812 16.812)" fill="none" stroke="#fff" stroke-linecap="round" stroke-linejoin="round" stroke-width="2" stroke-dasharray="3 5"/>
    <path id="Trazado_1732" data-name="Trazado 1732" d="M24,89.037a2.374,2.374,0,0,1,1.9-2.327,9.51,9.51,0,0,0,0-18.635A2.373,2.373,0,0,1,24,65.748V58.377A2.377,2.377,0,0,1,26.377,56H83.424A2.377,2.377,0,0,1,85.8,58.377v7.371a2.374,2.374,0,0,1-1.9,2.327,9.51,9.51,0,0,0,0,18.635,2.373,2.373,0,0,1,1.9,2.327v7.371a2.377,2.377,0,0,1-2.377,2.377H26.377A2.377,2.377,0,0,1,24,96.408Z" transform="translate(-16.869 -39.361)" fill="none" stroke="#fff" stroke-linecap="round" stroke-linejoin="round" stroke-width="2"/>
  </g>
</svg>
